<?xml version="1.0" standalone="no"?>
<!DOCTYPE svg PUBLIC "-//W3C//DTD SVG 20010904//EN"
 "http://www.w3.org/TR/2001/REC-SVG-20010904/DTD/svg10.dtd">
<svg version="1.0" xmlns="http://www.w3.org/2000/svg"
 width="716.000000pt" height="716.000000pt" viewBox="0 0 716.000000 716.000000"
 preserveAspectRatio="xMidYMid meet">
<metadata>
Created by potrace 1.14, written by Peter Selinger 2001-2017
</metadata>
<g transform="translate(0.000000,716.000000) scale(0.100000,-0.100000)"
fill="#000000" stroke="none">
<path d="M300 3580 l0 -3580 3285 0 3285 0 0 3580 0 3580 -3285 0 -3285 0 0
-3580z m2482 2568 c2 -69 7 -112 13 -111 52 8 746 23 865 18 717 -30 1170
-216 1456 -599 216 -288 281 -694 174 -1085 -81 -295 -308 -547 -648 -719
-121 -61 -282 -125 -410 -163 l-72 -21 77 -40 c307 -157 533 -405 737 -807
127 -252 608 -1303 600 -1311 -12 -12 -606 -291 -610 -287 -2 2 -149 321 -327
710 -179 389 -346 744 -372 790 -210 364 -469 574 -829 672 -157 43 -253 56
-443 62 l-183 6 0 -1082 0 -1081 -350 0 -350 0 -2 2182 -3 2183 -382 3 -383 2
0 255 0 255 379 0 c209 0 386 3 395 6 14 5 16 27 16 140 l0 134 325 0 324 0 3
-112z"/>
<path d="M3055 5489 c-110 -4 -210 -11 -222 -14 l-23 -5 0 -826 0 -826 463 5
c497 5 563 10 742 62 344 100 561 298 636 583 28 103 31 307 6 402 -81 309
-364 528 -777 601 -137 25 -501 33 -825 18z"/>
</g>
</svg>
